# xmcd
#
# Track frame offsets:
#	150
#	14686
#	30925
#	48419
#	62288
#	83567
#	99605
#	113587
#	132058
#	148592
#
# Disc length: 2179 seconds
#
# Revision: 0
# Processed by: cddbd v1.5.1PL2 Copyright (c) Steve Scherf et al.
# Submitted via: dBpowerAMP V4.0
#
DISCID=7308810a
DTITLE=Skooter Jones - Take Me Back Home
DYEAR=1900
DGENRE=
TTITLE0=She's My Baby, I'm In Love
TTITLE1=We Found "The One"
TTITLE2=Lookin' For A New Best Friend
TTITLE3=Armadillos Like To Boogie Too
TTITLE4=The Damage Is Done
TTITLE5=Take Me Back Home
TTITLE6=White Lace And Whiskey
TTITLE7=Before Fences
TTITLE8=Woman
TTITLE9=Her Song
EXTD=
EXTT0=
EXTT1=
EXTT2=
EXTT3=
EXTT4=
EXTT5=
EXTT6=
EXTT7=
EXTT8=
EXTT9=
PLAYORDER=
